# xmcd
#
# Track frame offsets:
#  150
#  19925
#  38963
#  58336
#  78932
#  93778
#  112066
#  125952
#  145274
#  159618
#  178176
#  195849
#  215279
#  228957
#  243583
#  259802
#
# Disc length: 3694 seconds
#
# Revision: 0
# Processed by: cddbd v1.5.1PL2 Copyright (c) Steve Scherf et al.
# Submitted via: Collectorz.com Music Collector 6.9
#
DISCID=e30e6c10
DTITLE=Dion Celine - On ne change pas [CD2)
DYEAR=2005
DGENRE=Pop
TTITLE0=Celine Dion - Le ballet (By Tita)
TTITLE1=Celine Dion - Contre nature (By Tita)
TTITLE2=Celine Dion - Je danse dans ma tete (By Tita
TTITLE3=Celine Dion - Le blues du businessman (By Ti
TTITLE4=Celine Dion - Le loup, la biche et le cheval
TTITLE5=Celine Dion - D'amour ou d'amitie (By Tita)
TTITLE6=Celine Dion - Mon ami m'a quittee (By Tita)
TTITLE7=Celine Dion - Les chemins de ma maison (By T
TTITLE8=Celine Dion - Ne partez pas sans moi (Grand
TTITLE9=Celine Dion - Je ne veux pas (By Tita)
TTITLE10=Celine Dion - Zora sourit (By Tita)
TTITLE11=Celine Dion - Destin (By Tita)
TTITLE12=Celine Dion - Tellement j'ai d'amour pour to
TTITLE13=Celine Dion - Ma nouvelle France (Inédit) (B
TTITLE14=Celine Dion - Les derniers seront les premie
TTITLE15=Celine Dion - Ce n'était qu'un reve (By Tita
EXTD=
EXTT0=
EXTT1=
EXTT2=
EXTT3=
EXTT4=
EXTT5=
EXTT6=
EXTT7=
EXTT8=
EXTT9=
EXTT10=
EXTT11=
EXTT12=
EXTT13=
EXTT14=
EXTT15=
PLAYORDER=
